<svg width="30" height="30" viewBox="0 0 30 30" fill="none" xmlns="http://www.w3.org/2000/svg">
<path d="M11.5385 13.2369V11.1231H13.9338V8.72771H16.0662V11.1231H18.4615V13.2369H16.0662V15.6462H13.9338V13.2369H11.5385Z" fill="white"/>
<path d="M12.5077 17.6769H17.4923V20.3308H12.5077V17.6769Z" fill="white"/>
<path d="M15 30C12.0333 30 9.13318 29.1203 6.66645 27.4721C4.19971 25.8238 2.2771 23.4812 1.14179 20.7403C0.00647472 17.9994 -0.290542 14.9834 0.288236 12.0737C0.867014 9.16394 2.29562 6.49121 4.3934 4.39343C6.49119 2.29564 9.16392 0.867007 12.0736 0.288229C14.9834 -0.290549 17.9994 0.00649562 20.7403 1.14181C23.4812 2.27712 25.8238 4.19973 27.472 6.66647C29.1202 9.13321 30 12.0333 30 15C29.9951 18.9768 28.4132 22.7892 25.6012 25.6012C22.7892 28.4132 18.9767 29.9951 15 30ZM15 2.30771C12.4897 2.30771 10.0358 3.0521 7.94852 4.44675C5.86128 5.8414 4.23446 7.82367 3.27381 10.1429C2.31316 12.4621 2.06185 15.0141 2.55159 17.4762C3.04132 19.9382 4.25013 22.1998 6.02518 23.9748C7.80024 25.7499 10.0618 26.9587 12.5239 27.4484C14.9859 27.9382 17.5379 27.6868 19.8571 26.7262C22.1764 25.7655 24.1586 24.1387 25.5532 22.0515C26.9479 19.9643 27.6923 17.5103 27.6923 15C27.6874 11.6353 26.3486 8.4098 23.9694 6.03059C21.5902 3.65137 18.3647 2.3126 15 2.30771Z" fill="white"/>
</svg>
