<svg width="30" height="30" viewBox="0 0 30 30" fill="none" xmlns="http://www.w3.org/2000/svg">
<path d="M13.8323 9.70617C13.5829 9.44881 13.2836 9.24521 12.9526 9.10789C12.6216 8.97058 12.266 8.90246 11.9077 8.90772C11.5499 8.90347 11.195 8.97161 10.8643 9.10803C10.5335 9.24446 10.2338 9.44633 9.98305 9.70155C9.60041 10.0826 9.33942 10.5686 9.23322 11.098C9.12702 11.6275 9.18036 12.1765 9.38647 12.6756C9.59258 13.1747 9.94219 13.6014 10.391 13.9017C10.8398 14.2019 11.3677 14.3622 11.9077 14.3622C12.4477 14.3622 12.9755 14.2019 13.4243 13.9017C13.8731 13.6014 14.2227 13.1747 14.4289 12.6756C14.635 12.1765 14.6883 11.6275 14.5821 11.098C14.4759 10.5686 14.2149 10.0826 13.8323 9.70155V9.70617ZM12.7338 12.4523C12.6264 12.5622 12.4978 12.6491 12.3558 12.7078C12.2138 12.7665 12.0613 12.7958 11.9077 12.7939C11.6268 12.7583 11.3685 12.6214 11.1813 12.409C10.9941 12.1966 10.8908 11.9232 10.8908 11.64C10.8908 11.3569 10.9941 11.0835 11.1813 10.8711C11.3685 10.6586 11.6268 10.5218 11.9077 10.4862C12.0613 10.4842 12.2138 10.5135 12.3558 10.5722C12.4978 10.6309 12.6264 10.7178 12.7338 10.8277C12.9492 11.0469 13.0698 11.342 13.0698 11.6493C13.0698 11.9566 12.9492 12.2516 12.7338 12.4708V12.4523Z" fill="white"/>
<path d="M19.9292 16.4446C19.4847 16.0017 18.9003 15.7266 18.2757 15.666C17.651 15.6055 17.0247 15.7633 16.5034 16.1125C15.982 16.4618 15.5978 16.981 15.4162 17.5817C15.2345 18.1824 15.2667 18.8275 15.5072 19.4071C15.7476 19.9868 16.1816 20.4652 16.7351 20.7609C17.2886 21.0566 17.9275 21.1513 18.543 21.0289C19.1585 20.9066 19.7126 20.5747 20.1109 20.0897C20.5093 19.6048 20.7272 18.9968 20.7277 18.3692C20.733 18.0109 20.6648 17.6553 20.5275 17.3244C20.3902 16.9934 20.1866 16.694 19.9292 16.4446ZM18.8262 19.1908C18.6357 19.3809 18.3851 19.499 18.1173 19.5251C17.8495 19.5512 17.5809 19.4836 17.3573 19.3338C17.1337 19.184 16.969 18.9614 16.8912 18.7037C16.8134 18.4461 16.8274 18.1695 16.9307 17.921C17.034 17.6725 17.2202 17.4675 17.4577 17.341C17.6952 17.2145 17.9693 17.1742 18.2331 17.2271C18.497 17.2799 18.7343 17.4227 18.9048 17.6309C19.0752 17.8392 19.1681 18.1001 19.1677 18.3692C19.1701 18.5223 19.141 18.6742 19.0822 18.8155C19.0235 18.9568 18.9363 19.0846 18.8262 19.1908Z" fill="white"/>
<path d="M17.907 10.4858L10.4269 17.9659L11.7878 19.3268L19.2679 11.8467L17.907 10.4858Z" fill="white"/>
<path d="M15 30C12.0333 30 9.13318 29.1203 6.66645 27.4721C4.19971 25.8238 2.2771 23.4812 1.14179 20.7403C0.00647472 17.9994 -0.290542 14.9834 0.288236 12.0737C0.867014 9.16394 2.29562 6.49121 4.3934 4.39343C6.49119 2.29564 9.16392 0.867007 12.0736 0.288229C14.9834 -0.290549 17.9994 0.00649562 20.7403 1.14181C23.4812 2.27712 25.8238 4.19973 27.472 6.66647C29.1202 9.13321 30 12.0333 30 15C29.9951 18.9768 28.4132 22.7892 25.6012 25.6012C22.7892 28.4132 18.9767 29.9951 15 30ZM15 2.30771C12.4897 2.30771 10.0358 3.0521 7.94852 4.44675C5.86128 5.8414 4.23446 7.82367 3.27381 10.1429C2.31316 12.4621 2.06185 15.0141 2.55159 17.4762C3.04132 19.9382 4.25013 22.1998 6.02518 23.9748C7.80024 25.7499 10.0618 26.9587 12.5239 27.4484C14.9859 27.9382 17.5379 27.6868 19.8571 26.7262C22.1764 25.7655 24.1586 24.1387 25.5532 22.0515C26.9479 19.9643 27.6923 17.5103 27.6923 15C27.6874 11.6353 26.3486 8.4098 23.9694 6.03059C21.5902 3.65137 18.3647 2.3126 15 2.30771Z" fill="white"/>
</svg>
