<svg width="30" height="30" viewBox="0 0 30 30" fill="none" xmlns="http://www.w3.org/2000/svg">
<path d="M27.6993 6.98278C27.3603 6.44653 26.9885 5.93174 26.586 5.44133C25.2341 3.80395 23.5495 2.47213 21.6437 1.53408C19.7379 0.596025 17.6545 0.0731244 15.5312 0H15.0138C11.0334 0.00488524 7.21743 1.58676 4.40286 4.39863C1.58828 7.21049 0.00488993 11.0228 0 14.9994C0 15.1701 0 15.3455 0 15.5163C0 15.687 -2.03003e-05 15.9778 0.0369367 16.1901V16.3516C0.0885471 16.9313 0.173402 17.5077 0.291039 18.0777C0.997114 21.4431 2.83915 24.4639 5.50865 26.6343C8.17814 28.8047 11.513 29.9929 14.9548 30C18.3966 30.007 21.7363 28.8324 24.4147 26.6729C27.093 24.5134 28.9474 21.5002 29.6672 18.1377C29.7958 17.5285 29.8869 16.912 29.9398 16.2916C29.9768 15.8624 29.9998 15.4332 29.9998 14.9994C30.0135 12.1627 29.2153 9.38126 27.6993 6.98278ZM15.8222 2.32607C19.0675 2.53052 22.1096 3.97491 24.3177 6.35974L3.24299 14.8932L15.8222 2.32607ZM13.092 2.44145L2.46686 13.0564C2.88063 10.3884 4.13313 7.92106 6.04318 6.01118C7.95324 4.1013 10.4218 2.8479 13.092 2.43221V2.44145ZM15.0138 27.6773C12.1895 27.6833 9.44414 26.7465 7.21365 25.0157C4.98317 23.2848 3.39541 20.8592 2.70247 18.1239H27.3251C26.6322 20.8592 25.0444 23.2848 22.8139 25.0157C20.5834 26.7465 17.8381 27.6833 15.0138 27.6773ZM27.6531 16.2778H4.73049L25.5188 7.85968C26.9534 9.95953 27.7198 12.4432 27.7178 14.9855C27.7178 15.424 27.6947 15.8163 27.6531 16.2778Z" fill="white"/>
</svg>
