<svg width="30" height="30" viewBox="0 0 30 30" fill="none" xmlns="http://www.w3.org/2000/svg">
<path d="M6.13501 6.79918C6.13511 6.73559 6.12806 6.67219 6.11401 6.61018L5.98201 6.64318C5.98484 6.6802 5.99744 6.71581 6.01852 6.74638C6.0396 6.77694 6.06841 6.80137 6.10201 6.81718C6.11122 6.80836 6.12261 6.80215 6.13501 6.79918Z" fill="white"/>
<path d="M6.60001 7.76218L6.72901 7.95118V8.16718H6.85801L6.98101 8.22418L7.07401 8.39518C7.02034 8.51567 7.00566 8.64993 7.03201 8.77918L7.20001 8.92618L7.09201 9.12418C7.46401 9.03418 7.99201 9.04618 7.71301 8.58418L7.50001 8.41018L7.41001 8.29918L7.07701 7.99918L6.91801 8.05918C6.97374 7.90873 6.98824 7.74611 6.96001 7.58818L6.69301 7.65118C6.71439 7.60406 6.72545 7.55292 6.72545 7.50118C6.72545 7.44944 6.71439 7.39829 6.69301 7.35118C6.62401 7.29418 6.34801 7.65118 6.51601 7.70518L6.60001 7.76218Z" fill="white"/>
<path d="M13.923 3.14518H13.902C13.9007 3.15111 13.9007 3.15725 13.902 3.16318L13.923 3.14518Z" fill="white"/>
<path d="M10.236 11.1972C10.236 11.1972 10.236 11.1972 10.236 11.1792V11.1972Z" fill="white"/>
<path d="M13.902 3.14518C13.9242 3.13968 13.9445 3.12824 13.9607 3.11207C13.9769 3.09591 13.9884 3.07563 13.994 3.05342C13.9995 3.03122 13.9989 3.00792 13.9922 2.98603C13.9856 2.96414 13.973 2.94448 13.956 2.92918C13.907 2.92557 13.8578 2.93409 13.8128 2.95397C13.7678 2.97385 13.7284 3.00448 13.698 3.04318C13.7163 3.08008 13.7461 3.11001 13.7829 3.12842C13.8197 3.14683 13.8615 3.15271 13.902 3.14518Z" fill="white"/>
<path d="M14.733 2.27818C14.682 2.22718 14.715 2.25718 14.733 2.27818V2.27818Z" fill="white"/>
<path d="M25.161 11.3952L25.23 11.2902C25.2056 11.2691 25.1795 11.25 25.152 11.2332C24.732 11.1912 24.9 11.6952 25.161 11.3952Z" fill="white"/>
<path d="M10.536 11.3172V11.2452C10.5423 11.2145 10.5423 11.1829 10.536 11.1522H10.518C10.461 11.0862 10.239 11.0862 10.239 11.1942C10.2664 11.2461 10.3111 11.2867 10.3653 11.3092C10.4196 11.3316 10.4799 11.3345 10.536 11.3172Z" fill="white"/>
<path d="M10.236 11.1792C10.236 11.1582 10.236 11.1492 10.236 11.1792V11.1792Z" fill="white"/>
<path d="M17.775 19.8552C17.778 19.8402 17.778 19.8252 17.775 19.8552V19.8552Z" fill="white"/>
<path d="M26.724 15.9582C26.589 15.9912 26.595 15.8412 26.46 15.8202C26.2072 15.8291 25.9564 15.8684 25.713 15.9372C25.584 15.9582 25.608 16.0482 25.686 16.1562C25.9569 16.1048 26.2337 16.0927 26.508 16.1202C26.5422 16.1259 26.5773 16.1238 26.6106 16.1139C26.6439 16.104 26.6745 16.0867 26.7 16.0632H26.73C26.7355 16.0282 26.7335 15.9924 26.724 15.9582Z" fill="white"/>
<path d="M25.2 15.3372C24.969 15.1932 24.123 14.6802 24.039 14.5032C24.039 14.3732 23.978 14.3412 23.856 14.4072C23.7833 14.4161 23.7097 14.4161 23.637 14.4072V14.4282C23.8649 14.7464 24.1286 15.0373 24.423 15.2952C24.585 15.4662 25.098 16.1352 25.398 15.8352C25.629 15.5952 25.359 15.4152 25.2 15.3372Z" fill="white"/>
<path d="M26.655 10.4472L26.637 10.3302C26.607 10.2012 26.595 10.0602 26.559 9.94318C26.4 9.94318 26.433 9.97318 26.484 9.98518C26.361 10.0782 26.484 10.3872 26.502 10.4922C26.551 10.4709 26.6023 10.4558 26.655 10.4472Z" fill="white"/>
<path d="M27.042 14.2002C27.0134 14.1227 26.9751 14.0491 26.928 13.9812C26.751 13.7772 26.928 13.7352 26.832 13.4772C26.427 13.4412 26.349 13.9332 26.112 14.1402C25.9901 14.2146 25.8952 14.3261 25.8412 14.4584C25.7872 14.5906 25.777 14.7367 25.812 14.8752C25.968 15.4752 26.493 15.3102 26.919 15.2142L26.967 15.0192C26.883 14.7132 27.183 14.4582 27.042 14.2002Z" fill="white"/>
<path d="M17.769 19.8732C17.769 19.8942 17.769 19.9062 17.754 19.8462C17.7586 19.7692 17.7586 19.6921 17.754 19.6152C17.7705 19.6052 17.7857 19.5931 17.799 19.5792C17.7885 19.456 17.7549 19.3359 17.7 19.2252C17.673 19.1892 17.628 19.1532 17.604 19.1262C17.58 19.0796 17.5589 19.0315 17.541 18.9822L17.487 19.0902C17.4564 19.1585 17.4333 19.2299 17.418 19.3032C17.4135 19.3799 17.3871 19.4538 17.3419 19.516C17.2967 19.5782 17.2346 19.6262 17.163 19.6542C17.1226 19.6941 17.0855 19.7373 17.052 19.7832C16.9782 19.8078 16.9155 19.8578 16.875 19.9242C16.8942 20.0128 16.9223 20.0993 16.959 20.1822C17.0003 20.4372 17.0223 20.6949 17.025 20.9532C17.085 21.6702 17.826 21.4812 17.853 20.8812C17.836 20.7549 17.8079 20.6305 17.769 20.5092C17.7245 20.4091 17.7015 20.3007 17.7015 20.1912C17.7015 20.0816 17.7245 19.9733 17.769 19.8732Z" fill="white"/>
<path d="M21.408 14.3742C21.3987 14.3167 21.369 14.2645 21.3244 14.227C21.2798 14.1896 21.2232 14.1694 21.165 14.1702C21.207 14.1702 21.249 14.1192 21.114 14.1702C21.159 14.3112 21.114 14.7702 21.414 14.6622L21.432 14.5152C21.4211 14.4758 21.413 14.4357 21.408 14.3952C21.4083 14.3882 21.4083 14.3812 21.408 14.3742Z" fill="white"/>
<path d="M6.41401 8.29918H6.30301L6.17701 8.52418L5.93101 8.60518L6.01801 8.80018V9.06418C6.09147 9.08878 6.16853 9.10095 6.24601 9.10018C6.62701 8.98018 6.60001 8.50018 6.41401 8.29918Z" fill="white"/>
<path d="M17.769 19.8732V19.8552C17.769 19.8552 17.772 19.8672 17.769 19.8732Z" fill="white"/>
<path d="M15 -0.00482178C12.0333 -0.00482178 9.13319 0.874913 6.66645 2.52313C4.19972 4.17135 2.27713 6.51403 1.14181 9.25493C0.00649924 11.9958 -0.290551 15.0118 0.288228 17.9215C0.867006 20.8312 2.29562 23.504 4.39341 25.6018C6.49119 27.6996 9.16394 29.1282 12.0737 29.707C14.9834 30.2857 17.9994 29.9887 20.7403 28.8534C23.4812 27.7181 25.8238 25.7955 27.4721 23.3287C29.1203 20.862 30 17.9619 30 14.9952C29.9952 11.0184 28.4134 7.20585 25.6013 4.39384C22.7893 1.58182 18.9768 -5.82044e-05 15 -0.00482178ZM15 27.7782C13.2972 27.7783 11.6117 27.4369 10.0432 26.7742C8.47465 26.1116 7.05493 25.1411 5.86801 23.9202C5.90701 23.8782 5.94601 23.8482 5.98801 23.7942C6.12656 23.6892 6.25786 23.5749 6.38101 23.4522C6.44101 23.3142 6.36301 23.1522 6.42001 23.0142C6.58501 22.6182 6.29701 22.0032 6.34201 21.5712C6.38701 21.1392 6.77701 20.6442 6.34201 20.2902C6.11701 20.1012 5.14201 20.0082 4.84201 19.9902C4.69801 19.9902 3.96901 20.1042 3.87901 20.0232C4.20001 19.7952 3.75601 19.3422 3.60001 19.1952C3.37201 18.9672 3.13201 19.0842 2.89801 19.1022C2.2694 17.2611 2.07086 15.3004 2.31762 13.3707C2.56437 11.4409 3.24987 9.59336 4.32152 7.96967C5.39317 6.34597 6.8225 4.98932 8.49985 4.00378C10.1772 3.01823 12.058 2.42999 13.998 2.28418C14.0015 2.30162 14.0087 2.31813 14.019 2.3326C14.0294 2.34708 14.0426 2.35921 14.058 2.36818C14.199 2.35018 14.271 2.36818 14.304 2.49718C14.524 2.45318 14.733 2.41918 14.931 2.39518L14.862 2.33518C14.829 2.30818 14.769 2.30518 14.73 2.27518C14.7207 2.26265 14.7106 2.25063 14.7 2.23918C14.805 2.23918 14.907 2.22418 15 2.22418C15.4742 2.22592 15.9479 2.25396 16.419 2.30818C16.419 2.30818 16.419 2.33818 16.437 2.35018C16.53 2.44618 16.671 2.43118 16.686 2.59918C16.28 2.63116 15.8717 2.58012 15.486 2.44918C15.456 2.43246 15.4236 2.42033 15.39 2.41318C15.3487 2.38242 15.2973 2.36842 15.2461 2.37399C15.1949 2.37955 15.1477 2.40427 15.114 2.44318C15.1241 2.48965 15.1521 2.53025 15.192 2.55611C15.232 2.58196 15.2805 2.59098 15.327 2.58118C15.738 2.71318 15.405 2.76718 15.252 2.78518C15.099 2.80318 15.108 2.92618 15 2.99518C14.9045 3.05993 14.7959 3.10294 14.682 3.12118C14.6784 3.09691 14.6699 3.07361 14.6572 3.05261C14.6445 3.03161 14.6278 3.01333 14.608 2.99883C14.5882 2.98433 14.5657 2.97389 14.5419 2.96812C14.518 2.96234 14.4932 2.96134 14.469 2.96518C14.304 3.19618 13.623 3.49918 13.644 3.82018C13.176 3.89518 13.53 3.59518 13.44 3.44518C13.3904 3.40368 13.3277 3.38095 13.263 3.38095C13.1983 3.38095 13.1357 3.40368 13.086 3.44518C13.0722 3.48078 13.0704 3.51988 13.0806 3.55665C13.0909 3.59341 13.1128 3.62587 13.143 3.64918C13.647 4.27318 12.495 3.90118 12.729 4.57318C12.645 4.62418 12.6 4.49518 12.534 4.49518C12.4427 4.49835 12.3543 4.52749 12.279 4.57918C12.393 4.54618 12.393 4.72918 12.393 4.79518C12.3313 4.80447 12.2682 4.79869 12.2091 4.77832C12.1501 4.75794 12.0969 4.72358 12.054 4.67818C11.658 4.36018 12.159 4.33618 12.432 4.19818C12.498 4.19384 12.5614 4.17061 12.6146 4.13125C12.6678 4.09188 12.7086 4.03806 12.732 3.97618C12.7306 3.91281 12.7131 3.85085 12.681 3.79618C12.6368 3.80774 12.5903 3.80774 12.546 3.79618C12.378 3.40018 12.048 3.59518 11.748 3.55618C11.352 3.48118 11.406 3.61018 11.028 3.61018C11.009 3.61602 10.989 3.61771 10.9694 3.61512C10.9497 3.61253 10.9308 3.60573 10.914 3.59518C10.896 3.56218 10.956 3.54118 10.956 3.52618C10.9415 3.45537 10.9204 3.38607 10.893 3.31918C10.05 3.22918 9.19801 4.20418 8.85301 4.88818C8.39701 5.78818 7.74601 6.16318 8.04301 7.16518C8.26201 7.11418 8.72701 7.09018 8.72701 6.81418C8.96401 6.95818 8.95501 7.13818 9.11401 7.32118C9.15465 7.34766 9.19281 7.37779 9.22801 7.41118C9.28801 7.52218 9.18001 7.51618 9.11401 7.57318C9.1153 7.60216 9.12465 7.63021 9.14101 7.65418C9.41312 7.5532 9.66134 7.39691 9.87001 7.19518L9.76201 7.21918C9.78364 7.11781 9.81068 7.01766 9.84301 6.91918C9.61801 6.70618 10.017 6.53518 9.65701 6.23518C9.58981 6.16987 9.54293 6.08652 9.52201 5.99518C9.73192 5.8288 9.90206 5.61767 10.02 5.37718C10.0425 5.35015 10.0552 5.31632 10.056 5.28118C10.056 5.23618 10.029 5.19418 10.029 5.15518C10.014 4.85518 10.431 4.66318 10.467 5.05318C10.467 5.23618 10.188 5.51218 10.137 5.72518C10.1202 5.74799 10.1051 5.77206 10.092 5.79718C10.074 6.44818 10.638 6.09718 10.875 6.04018C11.0205 6.00631 11.1697 5.99119 11.319 5.99518C11.457 6.29518 10.53 6.46618 10.38 6.50218C10.4973 6.52431 10.6069 6.57622 10.6983 6.65293C10.7897 6.72963 10.8598 6.82855 10.902 6.94018C10.843 6.96188 10.7815 6.97599 10.719 6.98218C10.719 6.95518 10.698 6.91918 10.698 6.89218H10.548C10.5433 6.93625 10.5279 6.97849 10.503 7.01518C10.4977 7.042 10.4836 7.0663 10.463 7.08423C10.4423 7.10216 10.4163 7.11269 10.389 7.11418C10.338 7.18318 10.389 7.13518 10.419 7.21618C10.4398 7.26121 10.449 7.31068 10.446 7.36018C10.401 7.61518 10.059 7.66018 9.84601 7.72318C9.87301 7.93318 9.31201 7.88818 9.18301 7.84018C8.82001 7.68718 8.98801 7.58218 8.76901 7.25818C8.71541 7.25621 8.66267 7.27204 8.61901 7.30318C8.61037 7.38162 8.61647 7.46098 8.63701 7.53718C8.68845 7.71847 8.70973 7.90698 8.70001 8.09518C8.51401 8.45218 7.91401 8.79118 7.91401 9.11518C7.68901 9.23218 7.59601 9.35518 7.38901 9.45118C7.41901 9.60718 7.38901 9.63418 7.23001 9.67018C6.93001 9.71518 7.33501 9.93718 7.43101 10.0152C7.47301 10.0512 7.92001 10.2882 7.73101 10.4532C7.43101 10.7532 6.72601 10.6242 6.57001 10.9662C6.57001 10.9512 6.80401 12.0222 6.81901 12.0792C7.21501 12.0162 7.52101 12.2802 7.89301 11.9562C8.14801 11.7342 8.17201 11.4972 8.32201 11.2272C8.3467 11.1212 8.38823 11.02 8.44501 10.9272C8.60101 10.7892 8.51401 10.6782 8.48401 10.4712C8.88001 10.3572 9.19501 10.2912 9.53101 10.1982C9.79744 10.4056 10.0781 10.5941 10.371 10.7622C10.4175 10.7936 10.4574 10.8339 10.4882 10.8807C10.5191 10.9276 10.5405 10.9801 10.551 11.0352C10.68 10.9722 10.635 10.9212 10.608 10.8132C10.581 10.7052 10.524 10.6002 10.659 10.5732C10.5745 10.4803 10.4726 10.4048 10.359 10.3512C10.29 10.3092 9.52201 9.91018 9.67201 9.78118C10.0881 9.88415 10.4908 10.0352 10.872 10.2312C11.025 10.3362 11.325 11.2692 11.625 11.1312C11.6156 11.1006 11.6152 11.068 11.6237 11.0372C11.6322 11.0064 11.6493 10.9786 11.673 10.9572C11.6939 10.925 11.7051 10.8875 11.7051 10.8492C11.7051 10.8108 11.6939 10.7733 11.673 10.7412C11.6285 10.7525 11.5834 10.7615 11.538 10.7682C11.478 10.5642 11.427 10.4352 11.622 10.2882C11.6562 10.2652 11.6964 10.253 11.7375 10.253C11.7787 10.253 11.8189 10.2652 11.853 10.2882C11.8558 10.3246 11.8697 10.3594 11.8927 10.3878C11.9157 10.4162 11.9469 10.4369 11.982 10.4472C12.1062 10.5638 12.1894 10.7174 12.219 10.8852C12.3 11.0622 13.5 10.7142 13.5 10.7382C13.4655 10.7997 13.4442 10.8678 13.4374 10.9381C13.4307 11.0083 13.4388 11.0792 13.461 11.1462C13.461 11.3142 13.554 11.6502 13.422 11.8122C13.386 11.8572 13.047 11.8422 13.086 11.9652C12.75 12.0612 11.286 11.7282 11.499 12.4302C11.4604 12.4515 11.4171 12.4626 11.373 12.4626C11.3289 12.4626 11.2856 12.4515 11.247 12.4302C10.887 12.1842 10.326 12.4122 10.047 12.1842C9.96723 11.9525 9.91782 11.7115 9.90001 11.4672C9.60877 11.504 9.32973 11.6066 9.08401 11.7672C8.69101 11.9442 8.25301 12.3222 7.83001 12.3672C7.72937 12.3693 7.62906 12.3793 7.53001 12.3972C7.53001 12.5502 7.19401 12.8502 7.14601 13.0152C6.99901 13.5342 7.06801 13.8162 6.82201 14.3232C6.60301 14.7672 6.47701 14.7522 6.57601 15.3522C6.61002 15.6346 6.65909 15.915 6.72301 16.1922C6.70768 16.2239 6.70046 16.259 6.70201 16.2942C6.71013 16.3544 6.7242 16.4137 6.74401 16.4712C6.76801 16.5852 7.56901 17.7972 7.74601 17.8362C8.1536 17.9805 8.59841 17.9805 9.00601 17.8362C9.12001 17.8062 9.24601 17.7882 9.35701 17.7492C9.65701 17.6502 9.84901 17.2002 10.257 17.5002C10.503 17.6802 10.476 17.5602 10.716 17.5002C10.8164 17.5041 10.9165 17.5131 11.016 17.5272C11.259 18.3462 11.175 18.2862 11.616 18.8142C11.9505 19.2137 12.1592 19.7032 12.216 20.2212C12.2282 20.2593 12.2432 20.2964 12.261 20.3322C12.423 20.7762 12.123 21.0252 12.423 21.3762C12.636 21.6492 13.833 23.7432 13.713 23.8482C13.815 23.9202 13.821 24.0462 13.908 24.1152C14.349 24.4152 15.33 23.5512 15.528 23.2152C15.603 23.0952 15.948 21.9492 15.768 21.9492C15.7946 21.8682 15.8288 21.7898 15.87 21.7152C15.9 21.6792 15.987 21.6522 16.008 21.6162C16.0077 21.4928 15.9654 21.3733 15.888 21.2772C15.588 20.6232 16.083 20.6022 16.257 20.0772C16.401 19.6452 16.197 19.2402 16.053 18.8502C15.846 18.2802 15.678 18.0672 15.882 17.4702C15.924 17.3382 16.182 16.6602 16.347 16.7112C16.3805 16.6546 16.4231 16.6039 16.473 16.5612C16.893 16.0122 16.665 15.7572 16.746 15.1992C16.7652 15.1663 16.7822 15.1322 16.797 15.0972C16.7958 15.0053 16.7764 14.9145 16.74 14.8302C15.672 15.2652 15.804 15.0792 15.042 14.2302C14.796 13.9602 14.64 13.9302 14.421 13.5222C14.3505 13.3585 14.263 13.2026 14.16 13.0572C14.1111 13.0247 14.06 12.9956 14.007 12.9702C13.968 12.9312 13.944 12.8682 13.908 12.8232C13.206 12.0252 14.163 12.6312 14.463 13.0182C14.8266 13.4367 15.1361 13.8993 15.384 14.3952C15.4562 14.4731 15.5378 14.5416 15.627 14.5992C15.635 14.6453 15.6546 14.6887 15.684 14.7252C16.284 14.6892 16.911 13.8462 17.289 13.4532C17.4553 13.1924 17.5666 12.9005 17.616 12.5952C17.616 12.4062 17.118 12.1962 16.953 12.1722C16.9064 12.1733 16.8608 12.1853 16.8196 12.2072C16.7785 12.2291 16.743 12.2602 16.716 12.2982C16.6882 12.3501 16.6484 12.3947 16.5998 12.4281C16.5513 12.4615 16.4955 12.4828 16.437 12.4902C16.432 12.4608 16.4205 12.4329 16.4034 12.4085C16.3863 12.3841 16.3639 12.3639 16.338 12.3492C16.3186 12.3294 16.2975 12.3114 16.275 12.2952H16.221C16.053 12.1992 15.462 11.7582 15.594 11.4972C15.699 11.2932 16.254 11.8242 16.362 11.8572C16.62 11.9352 16.806 11.8272 17.076 11.8752C17.1186 11.9206 17.1754 11.9502 17.237 11.9589C17.2987 11.9677 17.3615 11.955 17.415 11.9232C17.4237 11.933 17.4308 11.9441 17.436 11.9562C18.099 11.8512 18.6 11.6562 18.966 12.2562C19.0134 12.3249 19.0735 12.384 19.143 12.4302C19.2359 12.4245 19.3291 12.4245 19.422 12.4302C19.722 12.6012 19.872 13.3512 20.055 13.6302C20.1122 13.7052 20.1744 13.7764 20.241 13.8432C20.3185 13.8889 20.3927 13.94 20.463 13.9962C20.5057 14.1826 20.5864 14.3583 20.7 14.5122C20.8374 14.189 20.9439 13.8535 21.018 13.5102C21.054 13.2732 20.841 13.1832 20.94 12.9102C21.1367 12.6279 21.3663 12.3701 21.624 12.1422C21.87 11.8422 21.591 11.9232 21.852 11.7222C21.8975 11.6489 21.9337 11.5703 21.96 11.4882C22.179 11.2242 23.028 12.1242 22.86 12.3372C22.8822 12.3783 22.9178 12.4106 22.961 12.4287C23.0041 12.4467 23.0521 12.4493 23.097 12.4362C23.1657 12.3843 23.2379 12.3372 23.313 12.2952C23.415 12.6882 23.613 12.8952 23.694 13.3332C23.6909 13.4213 23.7102 13.5089 23.75 13.5875C23.7899 13.6662 23.8491 13.7335 23.922 13.7832C24.06 13.9902 24.522 14.9472 24.906 14.8062C24.81 14.4162 24.666 13.9422 24.21 13.8582C24.156 13.6662 23.76 13.1952 23.874 13.0002C24.03 12.7302 24.276 13.1292 24.492 13.1292C24.63 13.0812 24.713 13.1412 24.741 13.3092C24.801 13.4292 24.927 13.3482 25.014 13.2552C25.0873 13.1484 25.1696 13.048 25.26 12.9552C25.785 12.3912 24.642 11.8992 24.519 11.6022C24.4897 11.5462 24.4762 11.4832 24.48 11.4201C24.4838 11.357 24.5047 11.2961 24.5405 11.244C24.5763 11.1919 24.6256 11.1505 24.6831 11.1242C24.7406 11.098 24.8042 11.088 24.867 11.0952C24.9508 11.078 25.0331 11.0539 25.113 11.0232C25.044 10.7952 25.5 10.7952 25.593 10.7202C25.686 10.6452 25.668 10.5342 25.758 10.4502C25.8356 10.4189 25.9053 10.3707 25.962 10.3092C26.021 10.1248 26.1136 9.95293 26.235 9.80218C26.3117 9.75159 26.3796 9.68876 26.436 9.61618C26.4579 9.51738 26.4579 9.41498 26.436 9.31618C26.8312 10.1104 27.1419 10.944 27.363 11.8032C27.3061 11.7775 27.2445 11.7638 27.1821 11.7628C27.1197 11.7617 27.0577 11.7734 27 11.7972C27.147 11.7642 27.087 11.2812 27.063 11.2302C27.039 11.1792 27.063 10.9872 26.997 11.0382C26.9026 11.0762 26.8018 11.0956 26.7 11.0952L26.679 11.2962V11.5962L26.7 11.7312C26.7213 11.7811 26.7533 11.8258 26.7937 11.8621C26.8342 11.8984 26.882 11.9254 26.934 11.9412C27.0854 12.0327 27.2558 12.0881 27.432 12.1032C27.462 12.2322 27.498 12.3582 27.525 12.4872C27.4273 12.484 27.3325 12.4527 27.252 12.3972L27.201 12.3282C27.057 12.3762 27.201 12.7062 27.357 12.6942C27.4285 12.6833 27.4941 12.6484 27.543 12.5952C27.543 12.6432 27.543 12.6942 27.567 12.7422C27.411 12.8832 27.294 13.0782 27.516 13.0212H27.537L27.621 13.1322C27.6201 13.1412 27.6201 13.1502 27.621 13.1592C27.7099 13.7441 27.758 14.3346 27.765 14.9262C27.7407 14.9161 27.7184 14.9019 27.699 14.8842C27.6328 14.7992 27.5584 14.7208 27.477 14.6502C27.4079 14.6205 27.331 14.6141 27.258 14.6322C27.201 14.9502 27.438 15.1422 27.519 15.4242C27.564 15.4242 27.6 15.4422 27.648 15.4422V15.3552C27.629 15.289 27.5997 15.2262 27.561 15.1692C27.5447 15.1047 27.5236 15.0415 27.498 14.9802C27.528 14.9602 27.5642 14.9517 27.6 14.9562C27.604 14.9846 27.6132 15.012 27.627 15.0372C27.6428 15.0661 27.6646 15.0913 27.691 15.111C27.7174 15.1306 27.7478 15.1444 27.78 15.1512C27.7374 18.5133 26.3725 21.7234 23.9806 24.0867C21.5887 26.4499 18.3624 27.7761 15 27.7782Z" fill="white"/>
</svg>
