<svg width="17" height="16" viewBox="0 0 17 16" fill="none" xmlns="http://www.w3.org/2000/svg">
<g clip-path="url(#clip0_15_172)">
<path fill-rule="evenodd" clip-rule="evenodd" d="M8.2024 -0.00068705C6.25401 -0.00133501 4.369 0.691552 2.88487 1.95392C1.40074 3.21629 0.414394 4.96571 0.102431 6.88897C-0.209532 8.81222 0.173258 10.7837 1.18227 12.4505C2.19128 14.1173 3.76061 15.3705 5.60931 15.9857C6.01682 16.0618 6.16895 15.8078 6.16895 15.5918C6.16895 15.3758 6.16216 14.7496 6.15808 14.0637C3.87606 14.5608 3.3952 13.0965 3.3952 13.0965C3.02166 12.1457 2.48375 11.8957 2.48375 11.8957C1.73937 11.3864 2.5408 11.3972 2.5408 11.3972C3.36396 11.4556 3.79727 12.2421 3.79727 12.2421C4.52942 13.4972 5.71662 13.1346 6.18525 12.9213C6.2586 12.3915 6.4705 12.0302 6.7055 11.8251C4.88395 11.6173 2.96868 10.9137 2.96868 7.77043C2.95647 6.9555 3.25911 6.16727 3.81357 5.56991C3.728 5.36208 3.44682 4.52805 3.89236 3.39655C3.89236 3.39655 4.58104 3.1765 6.14858 4.23873C7.49333 3.86925 8.91283 3.86925 10.2576 4.23873C11.8224 3.1765 12.5111 3.39655 12.5111 3.39655C12.9566 4.52669 12.6768 5.36072 12.5912 5.56991C13.1452 6.16748 13.4473 6.95569 13.4348 7.77043C13.4348 10.9218 11.5168 11.6159 9.68979 11.8183C9.98456 12.0723 10.2467 12.5722 10.2467 13.3369C10.2467 14.4345 10.2372 15.3188 10.2372 15.5891C10.2372 15.8064 10.3839 16.0632 10.7996 15.9817C12.6476 15.3655 14.216 14.1119 15.2242 12.445C16.2324 10.7782 16.6144 8.80694 16.302 6.88413C15.9896 4.96133 15.0031 3.21245 13.5191 1.95051C12.0351 0.688574 10.1504 -0.00404942 8.2024 -0.00340226V-0.00068705Z" fill="white"/>
<path d="M3.10587 11.7762C3.08821 11.8183 3.02437 11.8292 2.97004 11.802C2.9157 11.7748 2.87631 11.7192 2.89669 11.6784C2.91706 11.6377 2.97819 11.6254 3.03252 11.6526C3.08685 11.6798 3.12489 11.7355 3.10451 11.7762H3.10587Z" fill="white"/>
<path d="M3.43867 12.147C3.39928 12.1837 3.32321 12.1674 3.27159 12.109C3.24662 12.0892 3.23018 12.0605 3.22563 12.029C3.22108 11.9974 3.22878 11.9653 3.24714 11.9392C3.28789 11.9025 3.36124 11.9202 3.41557 11.9772C3.46991 12.0343 3.47942 12.1131 3.43867 12.147Z" fill="white"/>
<path d="M3.76196 12.6197C3.7117 12.6551 3.62612 12.6197 3.57858 12.5491C3.53104 12.4785 3.52832 12.3888 3.57858 12.3535C3.62884 12.3182 3.71441 12.3535 3.76196 12.4228C3.8095 12.4921 3.81222 12.5844 3.76196 12.6197Z" fill="white"/>
<path d="M4.20478 13.0761C4.15995 13.1264 4.06894 13.1128 3.99423 13.0449C3.91952 12.977 3.90323 12.8846 3.94805 12.8357C3.99288 12.7868 4.08389 12.799 4.15995 12.867C4.23602 12.9349 4.25232 13.0272 4.20478 13.0761Z" fill="white"/>
<path d="M4.81603 13.341C4.79702 13.4049 4.70465 13.4348 4.61093 13.4076C4.5172 13.3804 4.45743 13.3043 4.47509 13.2391C4.49275 13.1739 4.58783 13.1441 4.6802 13.1726C4.77257 13.2011 4.83369 13.2758 4.81603 13.341Z" fill="white"/>
<path d="M5.48706 13.3886C5.48706 13.4565 5.41099 13.5122 5.31319 13.5135C5.21539 13.5149 5.13661 13.4619 5.13525 13.3954C5.13389 13.3288 5.21267 13.2717 5.31048 13.269C5.40828 13.2663 5.48706 13.322 5.48706 13.3886Z" fill="white"/>
<path d="M6.1119 13.284C6.12412 13.3505 6.05621 13.4198 5.95976 13.4361C5.86332 13.4524 5.77639 13.413 5.76416 13.3465C5.75194 13.2799 5.82121 13.2106 5.9163 13.1943C6.01138 13.178 6.09967 13.2174 6.1119 13.284Z" fill="white"/>
</g>
<defs>
<clipPath id="clip0_15_172">
<rect width="16.4061" height="16" fill="white"/>
</clipPath>
</defs>
</svg>
