<svg width="16" height="16" viewBox="0 0 16 16" fill="none" xmlns="http://www.w3.org/2000/svg">
<path d="M13.5887 13.5887H11.2257V9.88804C11.2257 9.00558 11.2099 7.86959 9.99665 7.86959C8.7659 7.86959 8.57759 8.83106 8.57759 9.82379V13.5884H6.21454V5.9784H8.48306V7.01839H8.51482C8.74185 6.63022 9.0699 6.3109 9.46406 6.09442C9.85821 5.87795 10.3037 5.77243 10.7531 5.78911C13.1481 5.78911 13.5897 7.36449 13.5897 9.41395L13.5887 13.5887ZM3.54825 4.93816C3.27703 4.93821 3.01188 4.85783 2.78635 4.70719C2.56081 4.55655 2.38502 4.34241 2.28119 4.09185C2.17735 3.8413 2.15014 3.56558 2.203 3.29956C2.25587 3.03354 2.38643 2.78917 2.57818 2.59736C2.76992 2.40554 3.01424 2.27489 3.28024 2.22193C3.54624 2.16897 3.82196 2.19608 4.07255 2.29983C4.32314 2.40357 4.53734 2.5793 4.68806 2.80478C4.83878 3.03027 4.91926 3.29538 4.91931 3.5666C4.91934 3.74669 4.8839 3.92501 4.81501 4.0914C4.74613 4.25779 4.64515 4.40898 4.51784 4.53634C4.39053 4.6637 4.23936 4.76474 4.073 4.83368C3.90664 4.90263 3.72833 4.93813 3.54825 4.93816ZM4.72977 13.5887H2.36427V5.9784H4.72977V13.5887ZM14.7668 0.00108656H1.17685C0.868392 -0.00239437 0.57116 0.116728 0.350491 0.332276C0.129821 0.547825 0.0037645 0.842165 0 1.15062V14.7971C0.00363566 15.1057 0.129618 15.4002 0.35028 15.616C0.570943 15.8317 0.868239 15.9511 1.17685 15.9478H14.7668C15.076 15.9517 15.3741 15.8327 15.5957 15.6169C15.8172 15.4011 15.944 15.1063 15.9483 14.7971V1.14963C15.9439 0.840569 15.817 0.545894 15.5954 0.33035C15.3739 0.114807 15.0759 -0.00397464 14.7668 0.000101549" fill="white"/>
</svg>
