<svg width="16" height="14" viewBox="0 0 16 14" fill="none" xmlns="http://www.w3.org/2000/svg">
<path d="M8.93332 8.82C8.6593 9.017 8.33177 9.11526 7.99999 9.1C7.66821 9.11526 7.34068 9.017 7.06666 8.82L0 4.83V11.9C0 12.457 0.210713 12.9911 0.585786 13.3849C0.960858 13.7788 1.46957 14 2 14H14C14.5304 14 15.0391 13.7788 15.4142 13.3849C15.7893 12.9911 16 12.457 16 11.9V4.83L8.93332 8.82Z" fill="white"/>
<path d="M14 0H2.00001C1.46958 0 0.960868 0.221249 0.585796 0.615076C0.210723 1.0089 9.82958e-06 1.54305 9.82958e-06 2.1V2.8C-0.00062718 2.92623 0.029707 3.0505 0.0880898 3.16084C0.146473 3.27119 0.230936 3.36388 0.333343 3.43L7.66667 7.63C7.76903 7.68659 7.88479 7.71089 8 7.7C8.11521 7.71089 8.23097 7.68659 8.33333 7.63L15.6667 3.43C15.7691 3.36388 15.8535 3.27119 15.9119 3.16084C15.9703 3.0505 16.0006 2.92623 16 2.8V2.1C16 1.54305 15.7893 1.0089 15.4142 0.615076C15.0391 0.221249 14.5304 0 14 0Z" fill="white"/>
</svg>
