<svg width="14" height="16" viewBox="0 0 14 16" fill="none" xmlns="http://www.w3.org/2000/svg">
<g clip-path="url(#clip0_15_190)">
<path fill-rule="evenodd" clip-rule="evenodd" d="M11.3548 10.3226H12.7742V16H0V10.3226H1.41935V14.5807H11.3548V10.3226Z" fill="white"/>
<path d="M2.96618 9.90065L9.93715 11.3658L10.2302 9.97226L3.25921 8.50646L2.96618 9.90065ZM3.88863 6.56272L10.3462 9.5702L10.9477 8.27872L4.49005 5.27123L3.88863 6.56272ZM5.67547 3.39459L11.1501 7.95342L12.0618 6.85859L6.58721 2.29988L5.67547 3.39459ZM9.20928 0.0247803L8.06605 0.875103L12.3174 6.59123L13.4606 5.74104L9.20928 0.0247803ZM2.83871 13.1613H9.93548V11.7419H2.83871V13.1613Z" fill="white"/>
</g>
<defs>
<clipPath id="clip0_15_190">
<rect width="13.5484" height="16" fill="white"/>
</clipPath>
</defs>
</svg>
