<svg width="16" height="16" viewBox="0 0 16 16" fill="none" xmlns="http://www.w3.org/2000/svg">
<path d="M8 0C3.5816 0 0 3.5816 0 8C0 12.4184 3.5816 16 8 16C12.4184 16 16 12.4184 16 8C16 3.5816 12.4184 0 8 0ZM12.018 6.4832C12.0217 6.56587 12.0236 6.64893 12.0236 6.7324C12.0236 9.2808 10.0836 12.2196 6.5364 12.2196C5.48825 12.2206 4.46194 11.92 3.58 11.3536C3.73269 11.3713 3.88628 11.3801 4.04 11.38C4.90837 11.3815 5.75201 11.0908 6.4352 10.5548C6.03304 10.5467 5.64343 10.4133 5.32075 10.1732C4.99806 9.93301 4.7584 9.59811 4.6352 9.2152C4.92431 9.27096 5.22237 9.2596 5.5064 9.182C5.06994 9.09385 4.67739 8.85746 4.39532 8.51292C4.11326 8.16837 3.95903 7.73688 3.9588 7.2916C3.9588 7.2828 3.9588 7.2748 3.9588 7.2668C4.22655 7.41567 4.52617 7.49799 4.8324 7.5068C4.42414 7.23409 4.13515 6.81605 4.02428 6.33776C3.9134 5.85948 3.98897 5.35692 4.2356 4.9324C4.71986 5.52822 5.32404 6.01551 6.00889 6.36263C6.69375 6.70974 7.44396 6.90891 8.2108 6.9472C8.11386 6.53353 8.15617 6.09944 8.33115 5.71227C8.50613 5.32511 8.804 5.00651 9.17854 4.80593C9.55308 4.60535 9.98336 4.53399 10.4026 4.60293C10.8218 4.67186 11.2066 4.87724 11.4972 5.1872C11.9284 5.10212 12.3419 4.94412 12.72 4.72C12.5761 5.16667 12.2747 5.54581 11.872 5.7868C12.2543 5.74131 12.6276 5.63899 12.9796 5.4832C12.7209 5.87092 12.3953 6.20953 12.018 6.4832Z" fill="white"/>
</svg>
